# xmcd
#
# Track frame offsets: 
#        150
#        21865
#        41725
#        61620
#
# Disc length: 1107 seconds
#
# Revision: 2
# Processed by: cddbd v1.5.2PL0 Copyright (c) Steve Scherf et al.
# Submitted via: ExactAudioCopyFreeDBPlugin 1.0
#
DISCID=29045104
DTITLE=ZARD - 今日はゆっくり話そう
DYEAR=2004
DGENRE=Pop
TTITLE0=今日はゆっくり話そう 
TTITLE1=淡い雪がとけて
TTITLE2=雨が降り出す前に
TTITLE3=今日はゆっくり話そう(Instrumental)
EXTD=YEAR: 2004
EXTT0=
EXTT1=
EXTT2=
EXTT3=
PLAYORDER=
